<?xml version="1.0" encoding="utf-8"?>
<!-- Svg Vector Icons : http://www.onlinewebfonts.com/icon -->
<!DOCTYPE svg PUBLIC "-//W3C//DTD SVG 1.1//EN" "http://www.w3.org/Graphics/SVG/1.1/DTD/svg11.dtd">
<svg version="1.1" xmlns="http://www.w3.org/2000/svg" xmlns:xlink="http://www.w3.org/1999/xlink" x="0px" y="0px" viewBox="0 0 1000 1000" enable-background="new 0 0 1000 1000" xml:space="preserve">
<metadata> Svg Vector Icons : http://www.onlinewebfonts.com/icon </metadata>
<g><g><path d="M500.1,382.8c-64.7,0-117.2,52.5-117.2,117.2s52.5,117.2,117.2,117.2c64.7,0,117.1-52.5,117.1-117.2S564.8,382.8,500.1,382.8z M500.1,244.3c64.7,0,117.1-52.5,117.1-117.2S564.8,10,500.1,10c-64.7,0-117.2,52.5-117.2,117.2S435.3,244.3,500.1,244.3z M500.1,755.7c-64.7,0-117.2,52.5-117.2,117.2S435.3,990,500.1,990c64.7,0,117.1-52.5,117.1-117.2S564.8,755.7,500.1,755.7z"/></g></g>
</svg>